<?xml version="1.0" encoding="UTF-8"?>
<svg version="1.1" xmlns="http://www.w3.org/2000/svg" width="1344" height="756">
<path d="M0 0 C443.52 0 887.04 0 1344 0 C1344 249.48 1344 498.96 1344 756 C900.48 756 456.96 756 0 756 C0 506.52 0 257.04 0 0 Z " fill="#FDFEFE" transform="translate(0,0)"/>
<path d="M0 0 C8.40330771 4.84806214 15.55049532 10.58227033 22.84765625 16.93359375 C26.32026045 19.95212501 29.88719284 22.83367391 33.49609375 25.6875 C37.08180421 28.53572391 40.63484843 31.42320832 44.1875 34.3125 C44.87980713 34.87541748 45.57211426 35.43833496 46.28540039 36.01831055 C51.94933102 40.62615202 57.60236813 45.24719847 63.25 49.875 C65.08321648 51.37514281 66.91655146 52.87514082 68.75 54.375 C71.44209947 56.57728166 74.13392614 58.77988636 76.82421875 60.984375 C82.28906421 65.46081045 87.76600645 69.922064 93.25 74.375 C100.44995732 80.22127769 107.63142597 86.08974667 114.8046875 91.96875 C120.82517508 96.89947573 126.86256726 101.80887648 132.90698242 106.71020508 C136.54176749 109.66151162 140.16527876 112.62555631 143.7734375 115.609375 C144.52157715 116.2278833 145.2697168 116.8463916 146.04052734 117.48364258 C147.46669284 118.6641294 148.89159198 119.84614857 150.31494141 121.0300293 C154.29463027 124.32438675 158.34054367 127.46736541 162.53710938 130.48193359 C166.28305629 133.528452 167.94244434 136.73492522 168.625 141.484375 C168.90316358 147.77782604 167.98986258 152.73421169 164.25 157.875 C159.95825792 162.0538015 155.40441719 164.71178658 149.3828125 165.16796875 C148.04655698 165.14831793 146.71044674 165.11296746 145.375 165.0625 C144.68664062 165.04896484 143.99828125 165.03542969 143.2890625 165.02148438 C141.60902999 164.9864837 139.9294065 164.93268954 138.25 164.875 C138.25276538 165.52030607 138.25553076 166.16561214 138.25837994 166.83047295 C138.32476222 182.56466636 138.37433996 198.29881075 138.40543652 214.03310966 C138.42087601 221.6422416 138.44190938 229.25127981 138.47631836 236.86035156 C138.50631045 243.4958783 138.52559619 250.13133711 138.53226548 256.76692975 C138.53616122 260.27731116 138.54525504 263.78749834 138.56719017 267.29781723 C138.59153365 271.2257616 138.59196372 275.15351954 138.59057617 279.08154297 C138.60675491 280.80892952 138.60675491 280.80892952 138.6232605 282.57121277 C138.59023357 291.2391492 137.78749891 300.02716716 131.6875 306.6875 C131.08808594 307.37457031 130.48867188 308.06164062 129.87109375 308.76953125 C122.30433953 314.84774365 115.3012425 316.61099104 105.74169922 316.44262695 C104.08627861 316.44372215 104.08627861 316.44372215 102.39741516 316.44483948 C98.78265666 316.44138139 95.16921836 316.40260222 91.5546875 316.36328125 C89.0354991 316.35394686 86.51630158 316.34683371 83.99710083 316.34184265 C78.06504907 316.32476212 72.13341446 316.28543543 66.20157635 316.2350952 C59.4421681 316.17899079 52.68273623 316.15166259 45.92315269 316.12661803 C32.0318444 316.07451232 18.14094788 315.98670281 4.25 315.875 C4.63007674 315.44338971 5.01015348 315.01177942 5.4017477 314.56709003 C7.93566145 311.65600822 10.30744056 308.79210237 12.50953674 305.61405945 C16.24082452 300.62629929 19.36153483 296.89944026 25.71481323 295.79776001 C31.17204387 295.25765227 36.61516497 295.39331827 42.08984375 295.51953125 C44.10478262 295.52201804 46.11973487 295.51905352 48.13465881 295.51091003 C53.40984103 295.50342936 58.68179896 295.56649034 63.95629883 295.64575195 C69.33336047 295.71522513 74.71044269 295.72250513 80.08789062 295.73242188 C86.12716787 295.74461406 92.16565901 295.76239403 98.20457458 295.83296204 C99.12016647 295.8423732 100.03575836 295.85178436 100.97909546 295.86148071 C102.68595994 295.87986509 104.39278768 295.90229567 106.09953308 295.92958069 C111.30128177 296.11638101 111.30128177 296.11638101 116.25 294.875 C118.28829385 291.25504144 118.50022148 288.04611176 118.5015564 283.94773865 C118.50693924 282.76025024 118.51232208 281.57276184 118.51786804 280.34928894 C118.51168205 278.40799858 118.51168205 278.40799858 118.50537109 276.42749023 C118.50812253 275.0440958 118.51180335 273.66070295 118.51634216 272.27731323 C118.524441 269.30351564 118.52662599 266.32979318 118.52439499 263.35598564 C118.52155892 258.65393315 118.53592372 253.95203053 118.55337524 249.25001526 C118.60037753 235.88129917 118.62435079 222.5125939 118.63085938 209.14379883 C118.63460773 201.7563345 118.65261587 194.36904035 118.68595374 186.98164898 C118.70618632 182.30692949 118.70852962 177.63264829 118.69767356 172.95790279 C118.6950691 170.05135018 118.70905661 167.14505365 118.72775459 164.23856735 C118.73562508 162.24744686 118.72362839 160.25627897 118.71107483 158.2651825 C118.72209732 157.08051392 118.73311981 155.89584534 118.74447632 154.67527771 C118.74556585 153.64567649 118.74665539 152.61607527 118.74777794 151.55527401 C119.38345819 148.16275626 120.56441856 146.97819066 123.25 144.875 C125.90722656 144.32910156 125.90722656 144.32910156 128.890625 144.265625 C129.96054687 144.23339844 131.03046875 144.20117188 132.1328125 144.16796875 C133.24398438 144.15378906 134.35515625 144.13960937 135.5 144.125 C136.62664062 144.09535156 137.75328125 144.06570313 138.9140625 144.03515625 C141.69278021 143.96451088 144.47066148 143.91178723 147.25 143.875 C140.43920536 138.01169725 133.57686262 132.28999706 126.41381836 126.86010742 C119.50984843 121.59607439 112.86293679 116.01626552 106.18164062 110.47460938 C101.88887917 106.91973411 97.56608815 103.40147822 93.25 99.875 C92.40824219 99.18535156 91.56648438 98.49570312 90.69921875 97.78515625 C87.88475655 95.47938203 85.06786486 93.17661481 82.25 90.875 C81.65026367 90.38483398 81.05052734 89.89466797 80.43261719 89.38964844 C73.35871828 83.6116223 66.26834193 77.86297161 59.0625 72.25 C53.97644232 68.28629866 49.03366342 64.18510108 44.13500977 59.99291992 C40.32974647 56.75101688 36.4456545 53.63152886 32.5 50.5625 C24.94331353 44.68377507 17.57080738 38.58953915 10.19628906 32.48486328 C7.44884585 30.21232934 4.69459535 27.94831819 1.9375 25.6875 C0.70580078 24.67623047 0.70580078 24.67623047 -0.55078125 23.64453125 C-1.27652344 23.06058594 -2.00226563 22.47664063 -2.75 21.875 C-3.38292969 21.30136719 -4.01585937 20.72773438 -4.66796875 20.13671875 C-7.57670335 18.37401467 -9.40234294 18.41694462 -12.75 18.875 C-15.28657233 20.35787728 -15.28657233 20.35787728 -17.625 22.5625 C-19.04425781 23.79033203 -19.04425781 23.79033203 -20.4921875 25.04296875 C-21.0087793 25.49591309 -21.52537109 25.94885742 -22.05761719 26.41552734 C-25.22430818 29.14641003 -28.49579678 31.74966715 -31.75 34.375 C-33.13587822 35.49943137 -34.52130246 36.62442252 -35.90625 37.75 C-36.56625 38.28625 -37.22625 38.8225 -37.90625 39.375 C-40.35833766 41.36991877 -42.80477231 43.37168093 -45.25 45.375 C-48.35970546 47.9227105 -51.47370813 50.46496598 -54.59375 53 C-55.27397217 53.55284668 -55.95419434 54.10569336 -56.6550293 54.67529297 C-58.04289972 55.8013102 -59.43236776 56.92536138 -60.82348633 58.04736328 C-63.94055572 60.56564196 -67.03189038 63.09763485 -70.04296875 65.7421875 C-70.99816406 66.56976563 -71.95335937 67.39734375 -72.9375 68.25 C-73.75605469 68.97960937 -74.57460938 69.70921875 -75.41796875 70.4609375 C-77.75 71.875 -77.75 71.875 -80.42578125 71.7265625 C-82.75 70.875 -82.75 70.875 -84.75 68.875 C-84.97705078 65.98583984 -84.97705078 65.98583984 -84.9453125 62.3359375 C-84.93886719 61.03398437 -84.93242188 59.73203125 -84.92578125 58.390625 C-84.90906929 57.01041405 -84.89213939 55.63020571 -84.875 54.25 C-84.86497006 52.86198548 -84.85584423 51.47396411 -84.84765625 50.0859375 C-84.82401931 46.68221808 -84.78814731 43.27858772 -84.75 39.875 C-93 39.875 -101.25 39.875 -109.75 39.875 C-109.59337891 45.79953125 -109.59337891 45.79953125 -109.43359375 51.84375 C-109.36334025 55.68287658 -109.30873036 59.5219307 -109.25561523 63.36132812 C-109.2155236 66.02438475 -109.14913648 68.68305946 -109.07104492 71.34570312 C-108.96146238 75.17894337 -108.91074016 79.00922563 -108.87109375 82.84375 C-108.82464218 84.02739136 -108.77819061 85.21103271 -108.73033142 86.43054199 C-108.72539791 94.56300864 -108.72539791 94.56300864 -111.69471741 98.3651886 C-113.95709793 100.39612634 -116.24656737 102.15456383 -118.75 103.875 C-119.882811 104.77704214 -121.01076186 105.68530903 -122.12890625 106.60546875 C-123.18806806 107.42711061 -124.24930373 108.24608542 -125.3125 109.0625 C-130.53713337 113.11891024 -135.6924233 117.24996698 -140.8125 121.4375 C-150.27524544 129.16265522 -159.97122415 136.55487893 -169.75 143.875 C-168.69087402 143.88901855 -168.69087402 143.88901855 -167.61035156 143.90332031 C-164.40619455 143.95705659 -161.20349243 144.04069757 -158 144.125 C-156.88882813 144.13917969 -155.77765625 144.15335938 -154.6328125 144.16796875 C-153.02792969 144.21630859 -153.02792969 144.21630859 -151.390625 144.265625 C-150.40610352 144.28657227 -149.42158203 144.30751953 -148.40722656 144.32910156 C-145.75 144.875 -145.75 144.875 -143.421875 146.25976562 C-140.76676602 150.41302605 -141.25834916 154.50539764 -141.359375 159.328125 C-141.36503479 160.34348328 -141.37069458 161.35884155 -141.37652588 162.40496826 C-141.39890247 165.64546001 -141.44910245 168.8848429 -141.5 172.125 C-141.52006329 174.32290069 -141.53831435 176.52081872 -141.5546875 178.71875 C-141.59877129 184.1045445 -141.66569627 189.48969303 -141.75 194.875 C-145.65483201 193.40543087 -148.18786373 191.85727504 -151.25 189 C-153.62828902 186.79757038 -155.74836825 184.8760109 -158.51171875 183.1640625 C-160.99974333 180.61959059 -161.09519613 180.14348253 -161.23828125 176.765625 C-161.20521221 175.21799393 -161.14581107 173.67074084 -161.0625 172.125 C-161.03994141 171.33222656 -161.01738281 170.53945313 -160.99414062 169.72265625 C-160.93540471 167.7726238 -160.84572654 165.82356688 -160.75 163.875 C-161.97976563 163.92140625 -163.20953125 163.9678125 -164.4765625 164.015625 C-166.1093506 164.05316036 -167.74216511 164.08955862 -169.375 164.125 C-170.18324219 164.15851563 -170.99148438 164.19203125 -171.82421875 164.2265625 C-177.33135589 164.31610945 -180.37746996 163.53883251 -184.75 159.875 C-189.00834641 155.14350399 -191.04643354 151.53107699 -191.1875 145.125 C-191.22746094 144.14015625 -191.26742188 143.1553125 -191.30859375 142.140625 C-189.91444482 133.9902159 -184.45351601 129.32848299 -178 124.75 C-176.4757111 123.62791953 -174.95363925 122.50282219 -173.43359375 121.375 C-172.65741699 120.80136719 -171.88124023 120.22773438 -171.08154297 119.63671875 C-167.31312369 116.78929325 -163.68910257 113.77466132 -160.0625 110.75 C-154.79684554 106.37608031 -149.50627405 102.04371724 -144.125 97.8125 C-143.30962769 97.16933838 -143.30962769 97.16933838 -142.4777832 96.51318359 C-137.9702674 92.98604726 -137.9702674 92.98604726 -135.93806458 91.96151733 C-133.78801059 90.79228653 -132.34507863 89.74359538 -130.75 87.875 C-129.74409138 83.94641878 -129.89071278 80.10898551 -129.98828125 76.07421875 C-129.98407417 74.34870537 -129.98407417 74.34870537 -129.9797821 72.58833313 C-129.97450279 68.912106 -130.01511097 65.23839704 -130.0625 61.5625 C-130.09405363 57.89770285 -130.11527013 54.23373968 -130.11308289 50.56880188 C-130.11321222 48.29037456 -130.13326067 46.01183494 -130.17610168 43.73381042 C-130.19730228 36.03316739 -128.97117886 30.78501628 -124.04321289 24.80322266 C-116.9273103 19.5537107 -109.17956582 20.03174938 -100.70239258 20.20263672 C-98.18896587 20.24997239 -95.67977764 20.24371845 -93.16601562 20.23046875 C-91.54685006 20.24162181 -89.92770211 20.25584131 -88.30859375 20.2734375 C-87.56878769 20.27161469 -86.82898163 20.26979187 -86.0667572 20.26791382 C-79.40833432 20.44641724 -74.10514326 22.58024503 -69.3125 27.25 C-67.56587742 30.18432594 -67.22540997 32.52405206 -66.75 35.875 C-60.7487279 31.67771751 -54.99091766 27.33008067 -49.4375 22.5625 C-17.13028408 -5.13908523 -17.13028408 -5.13908523 0 0 Z " fill="#162545" transform="translate(679.75,165.125)"/>
<path d="M0 0 C6.14441478 3.52734922 12.29456121 7.91601908 14.375 14.9375 C15.43337132 23.0771392 14.68103987 28.91299963 10.17578125 35.81640625 C8.375 37.9375 8.375 37.9375 5.79792786 39.56549072 C3.02885234 41.80919944 3.02885234 41.80919944 2.77372742 45.56951904 C2.75927152 47.04989866 2.77244503 48.53070407 2.80737305 50.01074219 C2.80664291 50.82087265 2.80591278 51.63100311 2.80516052 52.46568298 C2.80863967 55.13926519 2.84751437 57.8110978 2.88671875 60.484375 C2.89604576 62.33952889 2.9031624 64.19469511 2.90815735 66.04986572 C2.92723605 70.92952557 2.97634434 75.8084397 3.03167725 80.68780518 C3.08285094 85.66806958 3.10566737 90.64845464 3.13085938 95.62890625 C3.18446224 105.3987649 3.26978562 115.16807041 3.375 124.9375 C4.26485596 124.04184326 5.15471191 123.14618652 6.0715332 122.22338867 C7.25204862 121.03818169 8.43263505 119.85304544 9.61328125 118.66796875 C10.19823364 118.0788269 10.78318604 117.48968506 11.38586426 116.88269043 C14.36226336 113.89792184 17.35334772 110.9877861 20.5625 108.25 C21.16449219 107.72277344 21.76648438 107.19554687 22.38671875 106.65234375 C23.92717475 105.32373828 25.49868398 104.03109402 27.08203125 102.75390625 C32.5172635 98.15243787 32.5172635 98.15243787 34.8671875 91.6875 C34.7895731 89.45220519 34.66383085 87.21802321 34.48828125 84.98828125 C34.28779878 79.58908105 36.37276387 76.10824115 39.953125 72.2265625 C45.76619955 66.85863329 51.86880378 64.24940348 59.8203125 64.52734375 C66.82952859 65.65267661 71.82334836 69.81252804 76.18359375 75.19140625 C80.09040007 80.91711911 80.0511213 86.13349451 79.375 92.9375 C77.70793809 99.51590599 74.21182715 104.41925439 68.375 107.9375 C63.93679231 109.69708302 60.41708222 110.03789361 55.67114258 109.97290039 C47.12298816 110.50732212 43.29392087 114.29567374 37.63671875 120.37109375 C36.69787378 121.33170876 35.7561471 122.28951489 34.8117218 123.24464417 C32.35716357 125.74274454 29.94456472 128.27773595 27.53881836 130.82275391 C25.07304587 133.41534221 22.56643429 135.96782175 20.06445312 138.52539062 C8.22612368 149.30174966 8.22612368 149.30174966 4.16967773 163.78369141 C4.15977814 164.59352982 4.14987854 165.40336823 4.13967896 166.23774719 C4.10802601 168.92148896 4.08329156 171.60524845 4.05859375 174.2890625 C4.0380275 176.1470893 4.01703111 178.00511139 3.99562073 179.86312866 C3.9403661 184.75887235 3.89097179 189.65465851 3.84277344 194.55047607 C3.79258315 199.54410593 3.7368842 204.53767395 3.68164062 209.53125 C3.57401756 219.33328253 3.47309071 229.13536744 3.375 238.9375 C-3.885 238.9375 -11.145 238.9375 -18.625 238.9375 C-18.52316406 235.70710937 -18.42132812 232.47671875 -18.31640625 229.1484375 C-18.26885213 225.97411252 -18.2473644 222.80058581 -18.22827148 219.62597656 C-18.20139272 217.44155425 -18.14796086 215.25727447 -18.06616211 213.07421875 C-17.23580831 199.65258074 -17.23580831 199.65258074 -22.53466797 187.84594727 C-25.6270716 184.78581338 -29.04579979 182.19848949 -32.53146362 179.60534668 C-36.09502265 176.76638474 -39.06312219 173.40314208 -42.125 170.04296875 C-43.37235391 168.72340513 -44.6223571 167.40634077 -45.875 166.09179688 C-47.76975984 164.09810491 -49.65041608 162.09702577 -51.5 160.0612793 C-59.60298046 150.72054598 -59.60298046 150.72054598 -70.81030273 146.69941711 C-72.69629185 146.65859615 -74.58376477 146.73686926 -76.46826172 146.82226562 C-81.14535447 146.99299941 -83.01849154 145.83838724 -86.625 142.9375 C-92.16923021 137.39326979 -94.70469268 131.71384565 -95.0625 123.9375 C-94.84296135 117.97336677 -93.08312127 113.50398393 -88.94140625 109.1796875 C-82.35486297 103.31553929 -77.15773768 102.30081043 -68.33203125 102.56640625 C-62.14850206 103.18541075 -58.8895517 105.37366834 -54.8515625 109.9453125 C-49.42206171 116.85326891 -49.42206171 116.85326891 -49.9140625 121.90625 C-50.44142602 127.44969913 -50.7160727 131.3639132 -47.4609375 136.05859375 C-44.61405346 138.88587115 -41.74147338 141.41365387 -38.625 143.9375 C-37.2880193 145.09998506 -35.95420802 146.26613544 -34.625 147.4375 C-34.04492188 147.93113037 -33.46484375 148.42476074 -32.8671875 148.93334961 C-30.09991578 151.40683976 -27.48719788 154.02176959 -24.875 156.65625 C-24.36839844 157.16510742 -23.86179687 157.67396484 -23.33984375 158.19824219 C-22.10041345 159.44351886 -20.86254682 160.69035152 -19.625 161.9375 C-19.43792999 146.41259718 -19.29695327 130.88777891 -19.21050262 115.36201382 C-19.16929052 108.15266125 -19.11312903 100.94400985 -19.02148438 93.73510742 C-18.94162306 87.45009146 -18.89010577 81.16558335 -18.87229204 74.88007408 C-18.86188162 71.55303313 -18.83328344 68.22777953 -18.77915955 64.90112114 C-18.72106502 61.18247288 -18.71308812 57.46683187 -18.71679688 53.74780273 C-18.68803467 52.65088104 -18.65927246 51.55395935 -18.62963867 50.42379761 C-18.65474729 44.65284891 -18.65474729 44.65284891 -21.39797974 39.75958443 C-23.50496815 37.87540166 -23.50496815 37.87540166 -25.71504974 36.3476572 C-29.50099277 33.55241434 -30.4508524 30.08903415 -31.12890625 25.60546875 C-31.26836678 17.32151298 -30.3498065 12.08384808 -24.625 5.9375 C-22.125 3.5625 -22.125 3.5625 -19.625 1.9375 C-18.2946875 1.07125 -18.2946875 1.07125 -16.9375 0.1875 C-11.16571514 -1.99053202 -5.87716819 -1.72261826 0 0 Z " fill="#F5F6F6" transform="translate(678.625,243.0625)"/>
<path d="M0 0 C0.66 0 1.32 0 2 0 C2 0.66 2 1.32 2 2 C2.5875708 2.27295898 3.1751416 2.54591797 3.78051758 2.82714844 C5.94531621 3.97110319 7.6366384 5.19964661 9.51171875 6.765625 C10.17848633 7.31887451 10.84525391 7.87212402 11.53222656 8.44213867 C12.2434668 9.03873291 12.95470703 9.63532715 13.6875 10.25 C15.21733351 11.52227299 16.74728478 12.7944044 18.27734375 14.06640625 C19.05964355 14.71883301 19.84194336 15.37125977 20.64794922 16.04345703 C23.62382837 18.51892885 26.61550758 20.97478113 29.6081543 23.42993164 C35.94021717 28.62593308 42.23280885 33.86369224 48.47192383 39.17089844 C51.76257278 41.96621975 55.08610612 44.71540716 58.4375 47.4375 C62.55762781 50.79067761 66.60335635 54.21783556 70.625 57.6875 C76.56439101 62.8102762 82.5987276 67.80793009 88.66894531 72.7746582 C93.29999317 76.57272707 97.85481033 80.44603758 102.375 84.375 C108.01878901 89.27155587 113.85680183 93.7373727 120 98 C120.29648437 97.39671875 120.59296875 96.7934375 120.8984375 96.171875 C122.14982396 93.70460241 123.5578485 91.35988427 125 89 C128.15985462 89.29962103 129.60835952 89.57125674 131.78588867 91.95507812 C132.3244751 92.80521484 132.86306152 93.65535156 133.41796875 94.53125 C134.02825928 95.47959717 134.6385498 96.42794434 135.26733398 97.4050293 C135.90098877 98.42636963 136.53464355 99.44770996 137.1875 100.5 C138.17182007 102.05231323 138.17182007 102.05231323 139.17602539 103.63598633 C141.13704161 106.74554636 143.07227403 109.86971619 145 113 C145.55107422 113.8873584 146.10214844 114.7747168 146.66992188 115.68896484 C148.10738077 118.01316192 149.52784822 120.3463545 150.9375 122.6875 C151.56531372 123.71810547 151.56531372 123.71810547 152.20581055 124.76953125 C154.22772045 128.21004273 155 129.90849457 155 134 C153.25008666 134.02715383 151.50005055 134.04646551 149.75 134.0625 C148.28820312 134.07990234 148.28820312 134.07990234 146.796875 134.09765625 C144 134 144 134 142.12670898 133.52294922 C139.79275095 132.94903829 137.57152607 132.72414182 135.17578125 132.53515625 C134.23677979 132.4582959 133.29777832 132.38143555 132.33032227 132.30224609 C131.33444092 132.22312988 130.33855957 132.14401367 129.3125 132.0625 C119.51121021 131.25147642 109.75678092 130.23105692 100 129 C100 123.90804202 101.81254526 122.15526886 104.78515625 118.21875 C106.16133669 116.12693416 106.16133669 116.12693416 106 113.984375 C104.55148167 111.10997144 102.48575033 109.68537999 99.9375 107.75 C99.01839844 107.04359375 98.09929687 106.3371875 97.15234375 105.609375 C96.44207031 105.07828125 95.73179687 104.5471875 95 104 C94.01 104.495 94.01 104.495 93 105 C93.66128906 105.50789063 94.32257813 106.01578125 95.00390625 106.5390625 C97.51651153 108.58750711 99.83607641 110.58405318 102 113 C102.1875 116.375 102.1875 116.375 101 119 C99 121 99 121 97.20778465 121.24609566 C96.4795682 121.24425207 95.75135174 121.24240849 95.00106812 121.24050903 C94.16531754 121.24325836 93.32956696 121.24600769 92.4684906 121.24884033 C91.54995804 121.24164978 90.63142548 121.23445923 89.68505859 121.22705078 C88.71916306 121.22734283 87.75326752 121.22763489 86.75810242 121.22793579 C83.55479045 121.22653872 80.351709 121.21095974 77.1484375 121.1953125 C74.93169278 121.19158371 72.71494642 121.18873611 70.49819946 121.18673706 C64.65543084 121.17909004 58.81276118 121.15943237 52.97003174 121.1373291 C45.96416265 121.11330259 38.95826053 121.10409479 31.95236206 121.09242249 C21.30150581 121.07300861 10.65086685 121.03469338 0 121 C0 90.97 0 60.94 0 30 C5.5682782 32.22731128 5.5682782 32.22731128 8.4375 34.9375 C12.13541947 38.29924498 15.98947451 41.37982885 19.9375 44.4375 C24.70913712 48.14716458 29.30607206 51.9653065 33.78515625 56.02734375 C40.21009157 61.74972882 46.9152245 67.11937688 54 72 C51.88746795 68.03727648 49.65447722 65.62945849 46.125 62.875 C45.14789062 62.09898437 44.17078125 61.32296875 43.1640625 60.5234375 C42.6474707 60.11448242 42.13087891 59.70552734 41.59863281 59.28417969 C38.85235415 57.07809756 36.17970811 54.78607867 33.5 52.5 C28.66182714 48.38691329 23.77064157 44.34656586 18.84375 40.33984375 C14.96545184 37.1487715 11.14064344 33.8959099 7.32617188 30.62890625 C4.94672532 28.60033223 2.60592821 26.73728547 0 25 C-0.34057617 22.47802734 -0.34057617 22.47802734 -0.29296875 19.3359375 C-0.28330078 18.21445312 -0.27363281 17.09296875 -0.26367188 15.9375 C-0.23853516 14.761875 -0.21339844 13.58625 -0.1875 12.375 C-0.17396484 11.19164062 -0.16042969 10.00828125 -0.14648438 8.7890625 C-0.11103916 5.85892461 -0.06162769 2.92968541 0 0 Z " fill="#E3E4E4" transform="translate(510,361)"/>
<path d="M0 0 C6.14441478 3.52734922 12.29456121 7.91601908 14.375 14.9375 C15.43337132 23.0771392 14.68103987 28.91299963 10.17578125 35.81640625 C8.375 37.9375 8.375 37.9375 5.79792786 39.56549072 C3.02885234 41.80919944 3.02885234 41.80919944 2.77372742 45.56951904 C2.75927152 47.04989866 2.77244503 48.53070407 2.80737305 50.01074219 C2.80664291 50.82087265 2.80591278 51.63100311 2.80516052 52.46568298 C2.80863967 55.13926519 2.84751437 57.8110978 2.88671875 60.484375 C2.89604576 62.33952889 2.9031624 64.19469511 2.90815735 66.04986572 C2.92723605 70.92952557 2.97634434 75.8084397 3.03167725 80.68780518 C3.08285094 85.66806958 3.10566737 90.64845464 3.13085938 95.62890625 C3.18446224 105.3987649 3.26978562 115.16807041 3.375 124.9375 C4.26485596 124.04184326 5.15471191 123.14618652 6.0715332 122.22338867 C7.25204862 121.03818169 8.43263505 119.85304544 9.61328125 118.66796875 C10.19823364 118.0788269 10.78318604 117.48968506 11.38586426 116.88269043 C14.36226336 113.89792184 17.35334772 110.9877861 20.5625 108.25 C21.16449219 107.72277344 21.76648438 107.19554687 22.38671875 106.65234375 C23.92717475 105.32373828 25.49868398 104.03109402 27.08203125 102.75390625 C32.5172635 98.15243787 32.5172635 98.15243787 34.8671875 91.6875 C34.7895731 89.45220519 34.66383085 87.21802321 34.48828125 84.98828125 C34.28779878 79.58908105 36.37276387 76.10824115 39.953125 72.2265625 C45.76619955 66.85863329 51.86880378 64.24940348 59.8203125 64.52734375 C66.82952859 65.65267661 71.82334836 69.81252804 76.18359375 75.19140625 C80.09040007 80.91711911 80.0511213 86.13349451 79.375 92.9375 C77.70793809 99.51590599 74.21182715 104.41925439 68.375 107.9375 C63.93679231 109.69708302 60.41708222 110.03789361 55.67114258 109.97290039 C47.12298816 110.50732212 43.29392087 114.29567374 37.63671875 120.37109375 C36.69787378 121.33170876 35.7561471 122.28951489 34.8117218 123.24464417 C32.35716357 125.74274454 29.94456472 128.27773595 27.53881836 130.82275391 C25.07304587 133.41534221 22.56643429 135.96782175 20.06445312 138.52539062 C8.22612368 149.30174966 8.22612368 149.30174966 4.16967773 163.78369141 C4.15977814 164.59352982 4.14987854 165.40336823 4.13967896 166.23774719 C4.10802601 168.92148896 4.08329156 171.60524845 4.05859375 174.2890625 C4.0380275 176.1470893 4.01703111 178.00511139 3.99562073 179.86312866 C3.9403661 184.75887235 3.89097179 189.65465851 3.84277344 194.55047607 C3.79258315 199.54410593 3.7368842 204.53767395 3.68164062 209.53125 C3.57401756 219.33328253 3.47309071 229.13536744 3.375 238.9375 C-3.885 238.9375 -11.145 238.9375 -18.625 238.9375 C-18.52316406 235.70710937 -18.42132812 232.47671875 -18.31640625 229.1484375 C-18.26885213 225.97411252 -18.2473644 222.80058581 -18.22827148 219.62597656 C-18.20139272 217.44155425 -18.14796086 215.25727447 -18.06616211 213.07421875 C-17.23580831 199.65258074 -17.23580831 199.65258074 -22.53466797 187.84594727 C-25.6270716 184.78581338 -29.04579979 182.19848949 -32.53146362 179.60534668 C-36.09502265 176.76638474 -39.06312219 173.40314208 -42.125 170.04296875 C-43.37235391 168.72340513 -44.6223571 167.40634077 -45.875 166.09179688 C-47.76975984 164.09810491 -49.65041608 162.09702577 -51.5 160.0612793 C-59.60298046 150.72054598 -59.60298046 150.72054598 -70.81030273 146.69941711 C-72.69629185 146.65859615 -74.58376477 146.73686926 -76.46826172 146.82226562 C-81.14535447 146.99299941 -83.01849154 145.83838724 -86.625 142.9375 C-92.16923021 137.39326979 -94.70469268 131.71384565 -95.0625 123.9375 C-94.84296135 117.97336677 -93.08312127 113.50398393 -88.94140625 109.1796875 C-82.35486297 103.31553929 -77.15773768 102.30081043 -68.33203125 102.56640625 C-62.14850206 103.18541075 -58.8895517 105.37366834 -54.8515625 109.9453125 C-49.42206171 116.85326891 -49.42206171 116.85326891 -49.9140625 121.90625 C-50.44142602 127.44969913 -50.7160727 131.3639132 -47.4609375 136.05859375 C-44.61405346 138.88587115 -41.74147338 141.41365387 -38.625 143.9375 C-37.2880193 145.09998506 -35.95420802 146.26613544 -34.625 147.4375 C-34.04492188 147.93113037 -33.46484375 148.42476074 -32.8671875 148.93334961 C-30.09991578 151.40683976 -27.48719788 154.02176959 -24.875 156.65625 C-24.36839844 157.16510742 -23.86179687 157.67396484 -23.33984375 158.19824219 C-22.10041345 159.44351886 -20.86254682 160.69035152 -19.625 161.9375 C-19.43792999 146.41259718 -19.29695327 130.88777891 -19.21050262 115.36201382 C-19.16929052 108.15266125 -19.11312903 100.94400985 -19.02148438 93.73510742 C-18.94162306 87.45009146 -18.89010577 81.16558335 -18.87229204 74.88007408 C-18.86188162 71.55303313 -18.83328344 68.22777953 -18.77915955 64.90112114 C-18.72106502 61.18247288 -18.71308812 57.46683187 -18.71679688 53.74780273 C-18.68803467 52.65088104 -18.65927246 51.55395935 -18.62963867 50.42379761 C-18.65474729 44.65284891 -18.65474729 44.65284891 -21.39797974 39.75958443 C-23.50496815 37.87540166 -23.50496815 37.87540166 -25.71504974 36.3476572 C-29.50099277 33.55241434 -30.4508524 30.08903415 -31.12890625 25.60546875 C-31.26836678 17.32151298 -30.3498065 12.08384808 -24.625 5.9375 C-22.125 3.5625 -22.125 3.5625 -19.625 1.9375 C-18.2946875 1.07125 -18.2946875 1.07125 -16.9375 0.1875 C-11.16571514 -1.99053202 -5.87716819 -1.72261826 0 0 Z M-23.625 13.125 C-25.44349074 18.2395052 -25.66504062 23.89006916 -23.8984375 29.06640625 C-21.86117098 32.90077373 -19.25752267 35.60895982 -15.625 37.9375 C-14.635 37.9375 -13.645 37.9375 -12.625 37.9375 C-12.625 83.4775 -12.625 129.0175 -12.625 175.9375 C-21.60961538 168.07596154 -21.60961538 168.07596154 -25.0625 164.5625 C-25.81273437 163.80453125 -26.56296875 163.0465625 -27.3359375 162.265625 C-28.86197917 160.71354167 -30.38802083 159.16145833 -31.9140625 157.609375 C-37.45627313 152.01002818 -43.09547098 146.61974151 -49.375 141.84765625 C-53.45999739 138.49313582 -55.4655554 136.40614564 -56.05078125 131.015625 C-56.04491293 128.88713619 -55.94403502 126.81540468 -55.73242188 124.69750977 C-55.25416597 119.4566221 -56.27836315 116.95819444 -59.625 112.9375 C-64.46081323 109.28596756 -68.28486047 107.50316093 -74.43359375 107.59375 C-79.73353559 108.42511343 -83.48488667 111.76888384 -87.125 115.5 C-89.38671993 120.68310817 -89.58646024 125.37996844 -88.625 130.9375 C-86.54692943 135.39965838 -83.75709967 138.14995241 -79.75 140.9375 C-75.12027551 142.41901184 -70.87445776 142.59935022 -66.13615417 141.20521545 C-63.625 140.9375 -63.625 140.9375 -61.55659485 142.2978363 C-60.88089951 142.99288773 -60.20520416 143.68793915 -59.5090332 144.40405273 C-58.34806877 145.57538002 -58.34806877 145.57538002 -57.16365051 146.77037048 C-56.34265366 147.62860916 -55.5216568 148.48684784 -54.67578125 149.37109375 C-53.82195358 150.23815445 -52.96812592 151.10521515 -52.08842468 151.99855042 C-49.35696251 154.77693145 -46.64656643 157.57479189 -43.9375 160.375 C-41.21438209 163.16810739 -38.48709522 165.9569606 -35.75444031 168.74073792 C-34.053108 170.47617842 -32.35797371 172.2177198 -30.66950989 173.96568298 C-29.90499008 174.74972 -29.14047028 175.53375702 -28.3527832 176.34155273 C-27.67947464 177.03739975 -27.00616608 177.73324677 -26.31245422 178.45018005 C-24.74982911 180.15790635 -24.74982911 180.15790635 -22.625 179.9375 C-22.295 180.9275 -21.965 181.9175 -21.625 182.9375 C-19.49479987 185.17981593 -17.34342904 187.32573208 -14.98796082 189.33149719 C-13.25444226 191.37413528 -13.23248924 192.47871641 -13.19262695 195.13354492 C-13.17283279 195.97418991 -13.15303864 196.8148349 -13.13264465 197.68095398 C-13.12625473 198.58416885 -13.11986481 199.48738373 -13.11328125 200.41796875 C-13.09533005 201.34595779 -13.07737885 202.27394684 -13.05888367 203.23005676 C-13.00468709 206.19499157 -12.970855 209.15976455 -12.9375 212.125 C-12.90433518 214.13478819 -12.86984631 216.144555 -12.83398438 218.15429688 C-12.74895521 223.08191465 -12.68218862 228.00948364 -12.625 232.9375 C-9.325 232.9375 -6.025 232.9375 -2.625 232.9375 C-2.62952431 231.43865517 -2.62952431 231.43865517 -2.63414001 229.90953064 C-2.65804635 220.47840897 -2.64515913 211.04795422 -2.59653378 201.61691952 C-2.572711 196.76856656 -2.56171315 191.92090027 -2.58032227 187.07250977 C-2.59781531 182.39067375 -2.58123098 177.71006949 -2.54132271 173.02838326 C-2.53205061 171.24510381 -2.53492033 169.46171732 -2.55030632 167.67848015 C-2.6728726 151.94102343 -2.6728726 151.94102343 1.43139648 147.72485352 C2.7175571 146.75683916 4.03362891 145.82743512 5.375 144.9375 C6.70072122 143.81133162 8.01211578 142.66811364 9.30981445 141.50976562 C9.98025787 140.93073486 10.65070129 140.3517041 11.34146118 139.75512695 C14.87174971 136.59966834 18.12931312 133.18475936 21.41796875 129.78125 C22.91787172 128.24926724 24.41854488 126.71803822 25.91992188 125.1875 C28.25774667 122.80001836 30.59056862 120.40841298 32.91088867 118.00390625 C35.17047298 115.66593158 37.44844128 113.34729522 39.73046875 111.03125 C40.42327438 110.3043396 41.11608002 109.5774292 41.82987976 108.82849121 C42.81163933 107.84121033 42.81163933 107.84121033 43.81323242 106.83398438 C44.6663929 105.95631409 44.6663929 105.95631409 45.53678894 105.06091309 C47.375 103.9375 47.375 103.9375 49.85932922 104.23693848 C50.68950058 104.46812378 51.51967194 104.69930908 52.375 104.9375 C58.74252117 105.45942796 63.05967131 104.59105187 68.375 100.9375 C73.3324664 95.72580455 73.89783614 91.01796357 73.85546875 84.02734375 C73.0604562 78.91470208 70.30617402 76.10566134 66.375 72.9375 C62.01378762 70.10860548 56.4064859 70.05813696 51.375 70.9375 C46.32418336 73.47991444 42.83021271 76.83053389 40.375 81.9375 C40.48244835 85.30297172 40.48244835 85.30297172 40.96875 88.90625 C41.27728234 94.53480584 40.32579001 97.90975278 36.59521484 102.17651367 C33.79123722 105.05078014 30.86154474 107.75518462 27.875 110.4375 C26.68672514 111.55893034 25.50179694 112.68391785 24.3203125 113.8125 C19.12027759 118.74450685 13.77218058 123.49597333 8.34265137 128.17346191 C6.20103722 130.09346105 4.17284397 132.09762092 2.14648438 134.13867188 C1.43697632 134.85212769 0.72746826 135.5655835 -0.00354004 136.30065918 C-0.80616272 137.11089539 -0.80616272 137.11089539 -1.625 137.9375 C-1.76391253 124.96834045 -1.87057707 111.99935735 -1.93587303 99.02960587 C-1.96720925 93.00742602 -2.0097253 86.98575446 -2.07763672 80.96386719 C-2.14274542 75.15426375 -2.17868878 69.34514972 -2.19426346 63.53520966 C-2.20536491 61.3167322 -2.2270434 59.09828206 -2.25938034 56.88001251 C-2.30282962 53.77651222 -2.30893877 50.67504369 -2.30615234 47.57128906 C-2.327724 46.65059631 -2.34929565 45.72990356 -2.371521 44.78131104 C-2.34787616 42.35342769 -2.27630349 40.27690728 -1.625 37.9375 C1.26913452 35.52679443 1.26913452 35.52679443 4.375 33.9375 C8.28307944 28.89813441 9.02325714 24.87099909 8.75390625 18.51953125 C7.99725505 13.36338236 5.10978642 10.34861325 1.3125 7.0625 C-8.22782182 0.77735237 -16.8586008 5.72425088 -23.625 13.125 Z " fill="#202D4D" transform="translate(678.625,243.0625)"/>
<path d="M0 0 C0.66 0 1.32 0 2 0 C2 0.66 2 1.32 2 2 C2.5875708 2.27295898 3.1751416 2.54591797 3.78051758 2.82714844 C5.94531621 3.97110319 7.6366384 5.19964661 9.51171875 6.765625 C10.17848633 7.31887451 10.84525391 7.87212402 11.53222656 8.44213867 C12.2434668 9.03873291 12.95470703 9.63532715 13.6875 10.25 C15.21733351 11.52227299 16.74728478 12.7944044 18.27734375 14.06640625 C19.05964355 14.71883301 19.84194336 15.37125977 20.64794922 16.04345703 C23.62382837 18.51892885 26.61550758 20.97478113 29.6081543 23.42993164 C35.94021717 28.62593308 42.23280885 33.86369224 48.47192383 39.17089844 C51.76257278 41.96621975 55.08610612 44.71540716 58.4375 47.4375 C62.55762781 50.79067761 66.60335635 54.21783556 70.625 57.6875 C76.56439101 62.8102762 82.5987276 67.80793009 88.66894531 72.7746582 C93.29999317 76.57272707 97.85481033 80.44603758 102.375 84.375 C108.01878901 89.27155587 113.85680183 93.7373727 120 98 C120.29648437 97.39671875 120.59296875 96.7934375 120.8984375 96.171875 C122.14982396 93.70460241 123.5578485 91.35988427 125 89 C128.15985462 89.29962103 129.60835952 89.57125674 131.78588867 91.95507812 C132.3244751 92.80521484 132.86306152 93.65535156 133.41796875 94.53125 C134.02825928 95.47959717 134.6385498 96.42794434 135.26733398 97.4050293 C135.90098877 98.42636963 136.53464355 99.44770996 137.1875 100.5 C138.17182007 102.05231323 138.17182007 102.05231323 139.17602539 103.63598633 C141.13704161 106.74554636 143.07227403 109.86971619 145 113 C145.55107422 113.8873584 146.10214844 114.7747168 146.66992188 115.68896484 C148.10738077 118.01316192 149.52784822 120.3463545 150.9375 122.6875 C151.56531372 123.71810547 151.56531372 123.71810547 152.20581055 124.76953125 C154.22772045 128.21004273 155 129.90849457 155 134 C153.25008666 134.02715383 151.50005055 134.04646551 149.75 134.0625 C148.28820312 134.07990234 148.28820312 134.07990234 146.796875 134.09765625 C144 134 144 134 142.12670898 133.52294922 C139.79275095 132.94903829 137.57152607 132.72414182 135.17578125 132.53515625 C134.23677979 132.4582959 133.29777832 132.38143555 132.33032227 132.30224609 C131.33444092 132.22312988 130.33855957 132.14401367 129.3125 132.0625 C119.51121021 131.25147642 109.75678092 130.23105692 100 129 C100 123.90804202 101.81254526 122.15526886 104.78515625 118.21875 C106.16634364 116.12518771 106.16634364 116.12518771 105.98046875 113.97265625 C104.59220789 111.17954178 102.71377866 109.84229998 100.25 107.9375 C99.25226563 107.14988281 98.25453125 106.36226563 97.2265625 105.55078125 C96.43233887 104.92743896 96.43233887 104.92743896 95.62207031 104.29150391 C92.90595641 102.12891472 90.26777859 99.87613743 87.625 97.625 C87.08125732 97.16407959 86.53751465 96.70315918 85.97729492 96.22827148 C83.23819183 93.90629477 80.50513031 91.57744499 77.77734375 89.2421875 C72.31649216 84.57854052 66.80137484 80.02458801 61.125 75.625 C55.37989581 71.16925262 49.8690603 66.48857882 44.39941406 61.70019531 C39.92239615 57.78368043 35.36457063 53.98672933 30.7421875 50.2421875 C27.62999602 47.69746114 24.56281379 45.10372829 21.5 42.5 C12.09035511 34.05125601 12.09035511 34.05125601 1.87817383 26.74291992 C0 25 0 25 -0.45410156 22.36450195 C-0.4331543 21.33284912 -0.41220703 20.30119629 -0.390625 19.23828125 C-0.37773437 18.12001953 -0.36484375 17.00175781 -0.3515625 15.84960938 C-0.31804687 14.68236328 -0.28453125 13.51511719 -0.25 12.3125 C-0.23195313 11.13365234 -0.21390625 9.95480469 -0.1953125 8.74023438 C-0.14811859 5.82601074 -0.08229077 2.91340969 0 0 Z " fill="#152444" transform="translate(510,361)"/>
<path d="M0 0 C5.40618791 3.36810291 9.84576954 7.97587877 12.25 13.9375 C13.19591312 21.53780191 12.59728444 28.49943946 8.25 34.9375 C4.41512403 39.2552175 0.82246816 41.36871699 -4.75 42.9375 C-6.98394134 42.99378545 -9.21941664 43.00349992 -11.45385742 42.97290039 C-20.00201184 43.50732212 -23.83107913 47.29567374 -29.48828125 53.37109375 C-30.42712622 54.33170876 -31.3688529 55.28951489 -32.3132782 56.24464417 C-34.76783643 58.74274454 -37.18043528 61.27773595 -39.58618164 63.82275391 C-42.05195413 66.41534221 -44.55856571 68.96782175 -47.06054688 71.52539062 C-58.89887632 82.30174966 -58.89887632 82.30174966 -62.95532227 96.78369141 C-62.97017166 97.99844902 -62.97017166 97.99844902 -62.98532104 99.23774719 C-63.01697399 101.92148896 -63.04170844 104.60524845 -63.06640625 107.2890625 C-63.0869725 109.1470893 -63.10796889 111.00511139 -63.12937927 112.86312866 C-63.1846339 117.75887235 -63.23402821 122.65465851 -63.28222656 127.55047607 C-63.33241685 132.54410593 -63.3881158 137.53767395 -63.44335938 142.53125 C-63.55098244 152.33328253 -63.65190929 162.13536744 -63.75 171.9375 C-71.01 171.9375 -78.27 171.9375 -85.75 171.9375 C-85.75 156.7575 -85.75 141.5775 -85.75 125.9375 C-85.42 125.9375 -85.09 125.9375 -84.75 125.9375 C-84.75 140.7875 -84.75 155.6375 -84.75 170.9375 C-79.27174919 169.60832039 -79.27174919 169.60832039 -77.75 167.9375 C-78.74 167.6075 -79.73 167.2775 -80.75 166.9375 C-80.75 152.7475 -80.75 138.5575 -80.75 123.9375 C-80.42 123.9375 -80.09 123.9375 -79.75 123.9375 C-79.75 137.7975 -79.75 151.6575 -79.75 165.9375 C-76.45 165.9375 -73.15 165.9375 -69.75 165.9375 C-69.76776489 164.94049072 -69.78552979 163.94348145 -69.80383301 162.91625977 C-69.96630839 153.50068376 -70.08607281 144.08539367 -70.16449738 134.66873169 C-70.20617354 129.82787459 -70.26266013 124.98815288 -70.35351562 120.14794922 C-70.44071674 115.47294027 -70.48833106 110.7990202 -70.50901794 106.1232605 C-70.52375116 104.34340275 -70.55252377 102.56360177 -70.59584045 100.78421021 C-70.91904666 86.95176684 -70.91904666 86.95176684 -68.19702148 82.26171875 C-66.17425474 80.19119739 -64.12528657 78.5857729 -61.75 76.9375 C-60.40489788 75.78875376 -59.07218534 74.62533096 -57.75268555 73.44726562 C-57.09126556 72.8772583 -56.42984558 72.30725098 -55.74838257 71.7199707 C-52.22739084 68.57939858 -48.98392471 65.17258641 -45.70703125 61.78125 C-44.20712828 60.24926724 -42.70645512 58.71803822 -41.20507812 57.1875 C-38.86725333 54.80001836 -36.53443138 52.40841298 -34.21411133 50.00390625 C-31.95452702 47.66593158 -29.67655872 45.34729522 -27.39453125 43.03125 C-26.70172562 42.3043396 -26.00891998 41.5774292 -25.29512024 40.82849121 C-24.64061386 40.17030396 -23.98610748 39.5121167 -23.31176758 38.83398438 C-22.74299393 38.24887085 -22.17422028 37.66375732 -21.58821106 37.06091309 C-19.75 35.9375 -19.75 35.9375 -17.26567078 36.23693848 C-16.43549942 36.46812378 -15.60532806 36.69930908 -14.75 36.9375 C-8.4598956 37.45308233 -3.9103788 36.76211703 1.25 32.9375 C5.44491293 27.90360449 5.98924759 23.31415099 5.76953125 16.8203125 C4.94897872 12.2671714 2.84046812 9.73582647 -0.75 6.9375 C-5.15233569 4.12489664 -10.69126081 4.16408902 -15.75 4.9375 C-20.34634149 7.00884942 -23.90306446 10.21755361 -25.75 14.9375 C-26.27290069 18.59780482 -26.56251038 22.24589399 -26.75 25.9375 C-27.74 26.2675 -28.73 26.5975 -29.75 26.9375 C-31.13576923 28.56082967 -32.47641268 30.22474465 -33.75 31.9375 C-34.74 31.4425 -34.74 31.4425 -35.75 30.9375 C-35.25371094 30.57011719 -34.75742187 30.20273437 -34.24609375 29.82421875 C-32.08597091 27.10009517 -32.59207412 25.16860493 -32.8125 21.75 C-32.95250349 14.7498255 -31.94097803 10.39702568 -27.171875 5.2265625 C-19.42480116 -1.92726695 -9.73948536 -4.96812132 0 0 Z " fill="#1D2C4C" transform="translate(745.75,310.0625)"/>
<path d="M0 0 C0.66 0 1.32 0 2 0 C2 0.66 2 1.32 2 2 C2.66 2 3.32 2 4 2 C4.33 1.34 4.66 0.68 5 0 C4.62948535 6.17524411 3.18618232 8.71414667 -1 13 C-1.99 13.66 -2.98 14.32 -4 15 C-4.2863593 17.69204148 -4.37835144 20.15319556 -4.34057617 22.84619141 C-4.34101425 23.65602982 -4.34145233 24.46586823 -4.34190369 25.30024719 C-4.33980914 27.98426194 -4.31644717 30.66765652 -4.29296875 33.3515625 C-4.28737515 35.20958108 -4.28310394 37.06760408 -4.28010559 38.92562866 C-4.26863819 43.82153489 -4.2391548 48.71717512 -4.20599365 53.61297607 C-4.17533352 58.60653077 -4.16160895 63.60012835 -4.14648438 68.59375 C-4.11428685 78.39595036 -4.06306771 88.19795308 -4 98 C-3.11304443 97.10724365 -2.22608887 96.2144873 -1.31225586 95.29467773 C-0.13401923 94.11174927 1.04428857 92.92889168 2.22265625 91.74609375 C2.80551392 91.15904663 3.38837158 90.57199951 3.9888916 89.96716309 C7.6326225 86.31317177 11.35697169 82.82395569 15.296875 79.48828125 C17.01958071 77.98288933 18.6006342 76.39697436 20.1875 74.75 C22.71529105 72.27838209 24.99662399 70.78579114 28 69 C29.78344178 66.93045153 29.78344178 66.93045153 31 65 C31.99 65.66 32.98 66.32 34 67 C33.57627351 71.44216555 30.51708818 73.88030767 27.49609375 76.83203125 C26.93938492 77.38686691 26.38267609 77.94170258 25.80909729 78.51335144 C24.62809472 79.68763445 23.44350125 80.85831542 22.25561523 82.02563477 C20.46157827 83.78883559 18.67812804 85.56217671 16.89648438 87.33789062 C11.59734503 92.60027133 6.27266852 97.77312367 0.58959961 102.62426758 C-1.52930485 104.45809136 -3.48840332 106.42565574 -5.4375 108.4375 C-6.60655669 109.64316121 -7.78857794 110.83691398 -9 112 C-9.33 112 -9.66 112 -10 112 C-10.16213401 98.9177759 -10.28654138 85.83579048 -10.3626852 72.75276661 C-10.39922935 66.67783454 -10.44880316 60.60358941 -10.52807617 54.52905273 C-10.60409097 48.66755607 -10.64598138 42.8067204 -10.6641407 36.94476891 C-10.67708274 34.70755288 -10.70235601 32.47037337 -10.7401104 30.23343849 C-10.79087669 27.10119883 -10.79792581 23.97169567 -10.79467773 20.83911133 C-10.81984467 19.91266312 -10.8450116 18.9862149 -10.87094116 18.0316925 C-10.80129094 11.83074525 -10.80129094 11.83074525 -8.45631599 9.39957237 C-6.57142639 8.09208679 -6.57142639 8.09208679 -4.6925211 7.07133007 C-1.99741572 5.36538535 -1.13850567 2.87974963 0 0 Z " fill="#192646" transform="translate(686,270)"/>
<path d="M0 0 C0.66 0.33 1.32 0.66 2 1 C1.566875 1.391875 1.13375 1.78375 0.6875 2.1875 C-1.10227699 3.95756533 -1.10227699 3.95756533 -2.25 6.3125 C-3.95008775 8.92334904 -5.09444144 9.85012624 -7.55397034 11.61477661 C-10.34336726 13.97563293 -11.49444793 15.4420479 -11.87974548 19.10031128 C-11.9174611 20.68345132 -11.91736559 22.26778631 -11.88647461 23.85107422 C-11.89725037 24.72001816 -11.90802612 25.5889621 -11.91912842 26.48423767 C-11.94642682 29.34192741 -11.92467968 32.1969912 -11.90234375 35.0546875 C-11.91173074 37.0415307 -11.92418971 39.02836155 -11.93959045 41.01516724 C-11.97180802 46.23339483 -11.96237684 51.45074332 -11.94421387 56.66900635 C-11.93305371 61.99818533 -11.96136157 67.32713948 -11.98632812 72.65625 C-12.02947026 83.10441888 -12.02495646 93.55177161 -12 104 C-19.26 104 -26.52 104 -34 104 C-34 88.82 -34 73.64 -34 58 C-33.67 58 -33.34 58 -33 58 C-33 72.85 -33 87.7 -33 103 C-27.52174919 101.67082039 -27.52174919 101.67082039 -26 100 C-26.99 99.67 -27.98 99.34 -29 99 C-29 84.81 -29 70.62 -29 56 C-28.67 56 -28.34 56 -28 56 C-28 69.86 -28 83.72 -28 98 C-24.7 98 -21.4 98 -18 98 C-18.01776489 97.00299072 -18.03552979 96.00598145 -18.05383301 94.97875977 C-18.21630839 85.56318376 -18.33607281 76.14789367 -18.41449738 66.73123169 C-18.45617354 61.89037459 -18.51266013 57.05065288 -18.60351562 52.21044922 C-18.69071674 47.53544027 -18.73833106 42.8615202 -18.75901794 38.1857605 C-18.77375116 36.40590275 -18.80252377 34.62610177 -18.84584045 32.84671021 C-19.17158013 18.90584044 -19.17158013 18.90584044 -16.25228882 14.1569519 C-14.26949282 12.15037239 -12.33567233 10.56901373 -10 9 C-9.18789063 8.26007813 -8.37578125 7.52015625 -7.5390625 6.7578125 C-6.90742187 6.21898437 -6.27578125 5.68015625 -5.625 5.125 C-3.67895038 3.45806507 -1.81296709 1.81296709 0 0 Z " fill="#323D58" transform="translate(694,378)"/>
<path d="M0 0 C3.38344318 1.46135547 5.55130167 3.32897638 8.1171875 5.95703125 C8.88933594 6.74013672 9.66148437 7.52324219 10.45703125 8.33007812 C11.65392578 9.55887695 11.65392578 9.55887695 12.875 10.8125 C18.82958828 17.01122652 18.82958828 17.01122652 25.2578125 22.69921875 C32.5788313 28.84178296 32.5788313 28.84178296 33.43621826 33.2353363 C33.5775414 35.90769261 33.56239353 38.53586743 33.48828125 41.2109375 C33.48120651 42.17907379 33.47413177 43.14721008 33.46684265 44.14468384 C33.43896129 47.2222579 33.3762338 50.29798036 33.3125 53.375 C33.28740907 55.46742155 33.2645973 57.55987176 33.24414062 59.65234375 C33.18915493 64.76893736 33.10292494 69.88415528 33 75 C34.32 75.33 35.64 75.66 37 76 C35.8125 77.5 35.8125 77.5 34 79 C31.38671875 79.09375 31.38671875 79.09375 29 79 C29.00523682 78.45178085 29.01047363 77.90356171 29.01586914 77.33872986 C29.06270616 71.61131095 29.05344641 65.88589478 29.01220703 60.15844727 C29.00411653 58.02368801 29.01013368 55.88882531 29.03076172 53.75415039 C29.05801052 50.67718734 29.03384002 47.6041688 29 44.52734375 C29.0194165 43.57915268 29.03883301 42.63096161 29.05883789 41.65403748 C28.95371847 36.32712092 28.95371847 36.32712092 26.15234375 31.96658325 C23.98614899 30.13867235 23.98614899 30.13867235 21.71484375 28.64942932 C20 27 20 27 19.75390625 24.30284119 C19.83511719 23.54290359 19.91632812 22.782966 20 22 C19.42926758 21.75523926 18.85853516 21.51047852 18.27050781 21.25830078 C15.60267546 19.7798053 13.81283685 18.03873452 11.671875 15.8671875 C10.87265625 15.06152344 10.0734375 14.25585938 9.25 13.42578125 C8.425 12.58402344 7.6 11.74226563 6.75 10.875 C5.90953125 10.02550781 5.0690625 9.17601562 4.203125 8.30078125 C2.13084317 6.20495077 0.06337607 4.10459287 -2 2 C-1.34 1.34 -0.68 0.68 0 0 Z " fill="#172443" transform="translate(632,402)"/>
<path d="M0 0 C7.16055469 2.09878327 12.53149551 6.76008785 17 12.625 C18.58347818 17.96923884 18.58814725 23.46988821 18 29 C17.34 29.66 16.68 30.32 16 31 C15.01 30.67 14.02 30.34 13 30 C11.74667497 27.49334994 11.8212487 25.54725844 11.6875 22.75 C11.25862652 17.77896647 10.42859854 14.79925784 7 11 C2.37735881 7.112779 -1.15914326 6.40281771 -7 6 C-7 5.67 -7 5.34 -7 5 C-4.69 5 -2.38 5 0 5 C0 4.34 0 3.68 0 3 C-0.66 3 -1.32 3 -2 3 C-2 2.34 -2 1.68 -2 1 C-5.63 1.33 -9.26 1.66 -13 2 C-8.71480865 -0.85679424 -5.02620919 -0.47649078 0 0 Z " fill="#212E4E" transform="translate(675,242)"/>
<path d="M0 0 C0 0.33 0 0.66 0 1 C-0.81984375 1.10957031 -1.6396875 1.21914063 -2.484375 1.33203125 C-4.10085938 1.56986328 -4.10085938 1.56986328 -5.75 1.8125 C-6.81734375 1.96332031 -7.8846875 2.11414063 -8.984375 2.26953125 C-12.05451094 3.01320407 -13.66080478 3.92765472 -16 6 C-15.34 6.33 -14.68 6.66 -14 7 C-14 9 -14 9 -16.375 11.4375 C-17.24125 12.283125 -18.1075 13.12875 -19 14 C-21.18994248 17.28491373 -21.35277339 18.83095639 -21.625 22.6875 C-21.69976563 23.68136719 -21.77453125 24.67523438 -21.8515625 25.69921875 C-21.90054688 26.45847656 -21.94953125 27.21773438 -22 28 C-22.99 28.33 -23.98 28.66 -25 29 C-26.38576923 30.62332967 -27.72641268 32.28724465 -29 34 C-29.66 33.67 -30.32 33.34 -31 33 C-30.50371094 32.63261719 -30.00742187 32.26523437 -29.49609375 31.88671875 C-27.33597091 29.16259517 -27.84207412 27.23110493 -28.0625 23.8125 C-28.20250349 16.8123255 -27.19097803 12.45952568 -22.421875 7.2890625 C-15.59539963 0.98533524 -9.07903776 -0.4932274 0 0 Z " fill="#263250" transform="translate(741,308)"/>
<path d="M0 0 C0 0.66 0 1.32 0 2 C0.66 2 1.32 2 2 2 C2 2.66 2 3.32 2 4 C1.35933594 4.08636719 0.71867188 4.17273438 0.05859375 4.26171875 C-6.00027532 5.24594636 -10.57135972 6.61897951 -15 11 C-16.051875 12.60875 -16.051875 12.60875 -17.125 14.25 C-19 17 -19 17 -21.75 17.875 C-22.4925 17.91625 -23.235 17.9575 -24 18 C-23.87775537 12.13225795 -22.11911177 8.99070015 -18.09375 4.734375 C-12.79621215 0.34611603 -6.67053414 -0.42577877 0 0 Z " fill="#132346" transform="translate(673,243)"/>
<path d="M0 0 C4.10225747 2.2857597 7.59238135 5.05981652 11.125 8.125 C12.27667499 9.11275943 13.42902993 10.0997266 14.58203125 11.0859375 C15.15518066 11.57674805 15.72833008 12.06755859 16.31884766 12.57324219 C18.78748838 14.66832444 21.29868043 16.70949374 23.8125 18.75 C28.29904235 22.40107186 32.68165963 26.15185142 37 30 C36.67 31.32 36.34 32.64 36 34 C35.04480469 33.16597656 34.08960938 32.33195312 33.10546875 31.47265625 C25.50467354 24.85108037 17.83960847 18.3386525 10 12 C7.93538602 10.31507004 5.8740744 8.62615266 3.8125 6.9375 C2.89082031 6.18339844 1.96914063 5.42929687 1.01953125 4.65234375 C0.35308594 4.10707031 -0.31335938 3.56179688 -1 3 C-0.67 2.01 -0.34 1.02 0 0 Z " fill="#F0EFF0" transform="translate(564,431)"/>
<path d="M0 0 C2.64 0.66 5.28 1.32 8 2 C6.08009027 4.48458907 5.09225538 4.98305514 1.9375 5.5625 C-3.63089089 7.06692474 -7.09280909 11.56616606 -10.9375 15.625 C-11.71673828 16.42679687 -12.49597656 17.22859375 -13.29882812 18.0546875 C-15.21107238 20.02558956 -17.11062898 22.00720206 -19 24 C-19.99 23.34 -20.98 22.68 -22 22 C-20.91332031 20.93072266 -20.91332031 20.93072266 -19.8046875 19.83984375 C-13.45727282 13.59970148 -13.45727282 13.59970148 -7.5625 6.9375 C-5.19184268 4.21991721 -4.05341461 3.51103269 -1 2 C-0.67 1.34 -0.34 0.68 0 0 Z " fill="#142345" transform="translate(729,347)"/>
<path d="M0 0 C1.21236328 0.01353516 1.21236328 0.01353516 2.44921875 0.02734375 C3.37154297 0.04474609 3.37154297 0.04474609 4.3125 0.0625 C4.3125 0.7225 4.3125 1.3825 4.3125 2.0625 C5.3025 2.3925 6.2925 2.7225 7.3125 3.0625 C6.9825 3.7225 6.6525 4.3825 6.3125 5.0625 C3.4765625 5.44140625 3.4765625 5.44140625 -0.0625 5.625 C-4.96005474 5.88552499 -4.96005474 5.88552499 -9.6875 7.0625 C-10.6775 6.4025 -11.6675 5.7425 -12.6875 5.0625 C-8.37302626 1.44767065 -5.63913023 -0.08172653 0 0 Z " fill="#142344" transform="translate(736.6875,308.9375)"/>
<path d="M0 0 C4.29 0 8.58 0 13 0 C13.33 1.32 13.66 2.64 14 4 C13 5 13 5 10.27734375 5.09765625 C8.62412109 5.08025391 8.62412109 5.08025391 6.9375 5.0625 C5.28041016 5.04896484 5.28041016 5.04896484 3.58984375 5.03515625 C2.73519531 5.02355469 1.88054688 5.01195312 1 5 C0.67 3.35 0.34 1.7 0 0 Z " fill="#162445" transform="translate(599,346)"/>
<path d="M0 0 C0 0.33 0 0.66 0 1 C-0.81984375 1.10957031 -1.6396875 1.21914063 -2.484375 1.33203125 C-4.10085938 1.56986328 -4.10085938 1.56986328 -5.75 1.8125 C-6.81734375 1.96332031 -7.8846875 2.11414063 -8.984375 2.26953125 C-12.05451094 3.01320407 -13.66080478 3.92765472 -16 6 C-15.34 6.33 -14.68 6.66 -14 7 C-14 7.66 -14 8.32 -14 9 C-15.95927063 10.7143618 -17.95880212 12.38405168 -20 14 C-22.19953052 9.60093897 -22.19953052 9.60093897 -21.3359375 7 C-16.70336951 0.06469354 -7.59048781 -0.72674883 0 0 Z " fill="#192849" transform="translate(741,308)"/>
<path d="M0 0 C2.91346593 1.31307249 4.9450979 2.71181588 7.1640625 5.00390625 C8.01097656 5.86725586 8.01097656 5.86725586 8.875 6.74804688 C9.4525 7.34681641 10.03 7.94558594 10.625 8.5625 C11.78160151 9.75349384 12.94035778 10.94240005 14.1015625 12.12890625 C14.61025879 12.65556885 15.11895508 13.18223145 15.64306641 13.72485352 C16.99400105 15.1164217 16.99400105 15.1164217 19 16 C18.67 17.32 18.34 18.64 18 20 C14.99196428 17.04974274 11.9949821 14.08850331 9 11.125 C8.14148438 10.28324219 7.28296875 9.44148438 6.3984375 8.57421875 C5.58632813 7.76855469 4.77421875 6.96289062 3.9375 6.1328125 C2.80634766 5.01737061 2.80634766 5.01737061 1.65234375 3.87939453 C0 2 0 2 0 0 Z " fill="#2D3A5A" transform="translate(633,408)"/>
<path d="M0 0 C0.66 0.33 1.32 0.66 2 1 C0.52278578 4.45201639 -1.43794001 6.64961936 -4.125 9.25 C-4.84945312 9.95640625 -5.57390625 10.6628125 -6.3203125 11.390625 C-6.87460937 11.92171875 -7.42890625 12.4528125 -8 13 C-8.66 11.68 -9.32 10.36 -10 9 C-6.7 6.03 -3.4 3.06 0 0 Z " fill="#243455" transform="translate(692,384)"/>
<path d="M0 0 C0.99 0.33 1.98 0.66 3 1 C1.09236669 2.98861775 -0.82515911 4.96565718 -2.75 6.9375 C-3.55824219 7.78344727 -3.55824219 7.78344727 -4.3828125 8.64648438 C-4.91132812 9.18466797 -5.43984375 9.72285156 -5.984375 10.27734375 C-6.70705566 11.02359009 -6.70705566 11.02359009 -7.44433594 11.78491211 C-9.25704528 13.20077124 -10.75631224 13.59147949 -13 14 C-8.88380164 9.08064098 -4.59589638 4.47352044 0 0 Z " fill="#2A3956" transform="translate(695,355)"/>
<path d="M0 0 C0.85464844 -0.00515625 1.70929687 -0.0103125 2.58984375 -0.015625 C5.18224567 0.26286367 6.82764234 0.94330828 9.0625 2.25 C8.0725 2.745 8.0725 2.745 7.0625 3.25 C7.0625 4.24 7.0625 5.23 7.0625 6.25 C4.0925 6.25 1.1225 6.25 -1.9375 6.25 C-1.9375 5.92 -1.9375 5.59 -1.9375 5.25 C0.3725 5.25 2.6825 5.25 5.0625 5.25 C5.0625 4.59 5.0625 3.93 5.0625 3.25 C4.4025 3.25 3.7425 3.25 3.0625 3.25 C3.0625 2.59 3.0625 1.93 3.0625 1.25 C-0.5675 1.58 -4.1975 1.91 -7.9375 2.25 C-4.71002945 0.09835297 -3.73244361 -0.02245079 0 0 Z " fill="#414E6A" transform="translate(669.9375,241.75)"/>
<path d="M0 0 C0.99 0 1.98 0 3 0 C2.34 7.59 1.68 15.18 1 23 C0.67 23 0.34 23 0 23 C0 15.41 0 7.82 0 0 Z " fill="#141F40" transform="translate(676,281)"/>
<path d="M0 0 C0.66 0.33 1.32 0.66 2 1 C0.65925162 5.02224515 -1.7275898 6.39542862 -5 9 C-5.66 9.66 -6.32 10.32 -7 11 C-7 7 -7 7 -4.625 4.375 C-3.75875 3.59125 -2.8925 2.8075 -2 2 C-1.34 1.34 -0.68 0.68 0 0 Z " fill="#1D304B" transform="translate(499,292)"/>
<path d="M0 0 C2.4375 0.375 2.4375 0.375 5 1 C5.33 1.66 5.66 2.32 6 3 C5.0625 5.625 5.0625 5.625 4 8 C1 6 1 6 0.3125 2.875 C0.209375 1.92625 0.10625 0.9775 0 0 Z " fill="#192749" transform="translate(617,350)"/>
<path d="M0 0 C-0.1875 1.8125 -0.1875 1.8125 -1 4 C-3.375 5.8125 -3.375 5.8125 -6 7 C-6.99 6.67 -7.98 6.34 -9 6 C-7.8803014 4.99406757 -6.7540588 3.9954151 -5.625 3 C-4.68527344 2.1646875 -4.68527344 2.1646875 -3.7265625 1.3125 C-2 0 -2 0 0 0 Z " fill="#192D4A" transform="translate(628,191)"/>
<path d="M0 0 C2.95409701 1.37154504 5.44008376 2.98863724 8 5 C7.67 6.32 7.34 7.64 7 9 C5.82737096 7.88121617 4.66204862 6.75476949 3.5 5.625 C2.8503125 4.99851562 2.200625 4.37203125 1.53125 3.7265625 C0 2 0 2 0 0 Z " fill="#374562" transform="translate(644,419)"/>
<path d="M0 0 C2.0625 0.6875 2.0625 0.6875 4 2 C4.6875 4 4.6875 4 5 6 C5.33 6.66 5.66 7.32 6 8 C2.2047869 6.50902342 0.38957269 4.24299151 -2 1 C-1.34 0.67 -0.68 0.34 0 0 Z " fill="#142246" transform="translate(632,402)"/>
<path d="M0 0 C0.66 0.66 1.32 1.32 2 2 C-1.61328125 6.6875 -1.61328125 6.6875 -3 8 C-3.99 8 -4.98 8 -6 8 C-4.73058503 4.08597051 -3.48832306 2.20927127 0 0 Z " fill="#22334F" transform="translate(558,189)"/>
<path d="M0 0 C0 4.05164344 -1.61357669 5.79537442 -4 9 C-4.99 9.66 -5.98 10.32 -7 11 C-5.5140084 6.40693504 -3.14985318 3.56430755 0 0 Z " fill="#263455" transform="translate(656,247)"/>
<path d="M0 0 C0 0.66 0 1.32 0 2 C1.32 2.33 2.64 2.66 4 3 C-0.8333472 3.08333357 -5.23692563 2.95261487 -10 2 C-10 1.67 -10 1.34 -10 1 C-6.56484998 0.37542727 -3.50935186 0 0 0 Z " fill="#3F4C63" transform="translate(631,489)"/>
<path d="M0 0 C2.74277578 3.19990508 4.6302836 6.00499382 6 10 C4.68 9.34 3.36 8.68 2 8 C2 7.34 2 6.68 2 6 C1.34 6 0.68 6 0 6 C0 4.02 0 2.04 0 0 Z " fill="#263751" transform="translate(651,469)"/>
<path d="M0 0 C-0.3125 2.375 -0.3125 2.375 -1 5 C-1.99 5.66 -2.98 6.32 -4 7 C-4.33 5.02 -4.66 3.04 -5 1 C-3 0 -3 0 0 0 Z " fill="#102144" transform="translate(597,350)"/>
<path d="M0 0 C0 0.33 0 0.66 0 1 C-0.83144531 1.12117188 -1.66289063 1.24234375 -2.51953125 1.3671875 C-3.60621094 1.53476562 -4.69289063 1.70234375 -5.8125 1.875 C-6.89144531 2.03742188 -7.97039063 2.19984375 -9.08203125 2.3671875 C-12.17321793 2.85132338 -12.17321793 2.85132338 -15 5 C-15.66 4.34 -16.32 3.68 -17 3 C-11.17521449 -0.03901852 -6.51791392 -0.3540919 0 0 Z " fill="#606C80" transform="translate(741,308)"/>
<path d="M0 0 C1.65 0 3.3 0 5 0 C5 0.66 5 1.32 5 2 C5.66 2 6.32 2 7 2 C7 2.66 7 3.32 7 4 C5.02 4 3.04 4 1 4 C0.67 2.68 0.34 1.36 0 0 Z " fill="#0F1E3E" transform="translate(668,243)"/>
<path d="M0 0 C3.7952131 1.49097658 5.61042731 3.75700849 8 7 C5 7 5 7 2.3125 4.625 C0 2 0 2 0 0 Z " fill="#293859" transform="translate(625,379)"/>
<path d="M0 0 C1.32 0 2.64 0 4 0 C4.33 0.99 4.66 1.98 5 3 C5.66 3.33 6.32 3.66 7 4 C6.67 4.66 6.34 5.32 6 6 C3.03 5.505 3.03 5.505 0 5 C0.33 4.01 0.66 3.02 1 2 C0.67 1.34 0.34 0.68 0 0 Z " fill="#122043" transform="translate(676,244)"/>
<path d="M0 0 C3.1875 1.75 3.1875 1.75 6 4 C6 4.99 6 5.98 6 7 C3 5 0 3 -3 1 C-2.01 0.67 -1.02 0.34 0 0 Z " fill="#2C3959" transform="translate(743,313)"/>
<path d="M0 0 C0.66 0.33 1.32 0.66 2 1 C0.35 2.98 -1.3 4.96 -3 7 C-3.99 6.67 -4.98 6.34 -6 6 C-4 4 -2 2 0 0 Z " fill="#1B304C" transform="translate(538,261)"/>
<path d="M0 0 C0.66 0 1.32 0 2 0 C2 1.32 2 2.64 2 4 C-1.63 4 -5.26 4 -9 4 C-9 3.67 -9 3.34 -9 3 C-6.36 3 -3.72 3 -1 3 C-0.67 2.01 -0.34 1.02 0 0 Z " fill="#434E61" transform="translate(663,491)"/>
<path d="M0 0 C-0.33 1.32 -0.66 2.64 -1 4 C-4.75 5.125 -4.75 5.125 -7 4 C-3.375 0 -3.375 0 0 0 Z " fill="#303F5B" transform="translate(729,346)"/>
<path d="M0 0 C4.875 1.75 4.875 1.75 6 4 C5.01 5.485 5.01 5.485 4 7 C3.896875 6.360625 3.79375 5.72125 3.6875 5.0625 C3.460625 4.381875 3.23375 3.70125 3 3 C2.01 2.67 1.02 2.34 0 2 C0 1.34 0 0.68 0 0 Z " fill="#192649" transform="translate(680,245)"/>
<path d="M0 0 C0.66 0.99 1.32 1.98 2 3 C0.35 4.65 -1.3 6.3 -3 8 C-3.66 7.67 -4.32 7.34 -5 7 C-3.625 5 -3.625 5 -2 3 C-1.34 3 -0.68 3 0 3 C0 2.01 0 1.02 0 0 Z " fill="#223550" transform="translate(618,474)"/>
<path d="M0 0 C0.66 0.33 1.32 0.66 2 1 C0.35 2.65 -1.3 4.3 -3 6 C-3.99 5.67 -4.98 5.34 -6 5 C-4.02 3.35 -2.04 1.7 0 0 Z " fill="#1B304F" transform="translate(652,170)"/>
</svg>
